HIERARCHY
ROOT Hips
{
	OFFSET -3.958830 18.904000 13.208200
	CHANNELS 6 Xposition Yposition Zposition Zrotation Yrotation Xrotation 
	JOINT LHipJoint
	{
		OFFSET 0.000000 0.000000 0.000000
		CHANNELS 3 Zrotation Yrotation Xrotation
		JOINT LeftUpLeg
		{
			OFFSET 1.800000 -1.400000 0.085000
			CHANNELS 3 Zrotation Yrotation Xrotation
			JOINT LeftLeg
			{
				OFFSET 2.215000 -6.000000 0.000000
				CHANNELS 3 Zrotation Yrotation Xrotation
				JOINT LeftFoot
				{
					OFFSET 2.500000 -6.900000 0.000000
					CHANNELS 3 Zrotation Yrotation Xrotation
					JOINT LeftToeBase
					{
						OFFSET 0.200000 -0.500000 1.950000
						CHANNELS 3 Zrotation Yrotation Xrotation
						End Site
						{
							OFFSET 0.000000 0.000000 0.000000
						}
					}
				}
			}
		}
	}
	JOINT RHipJoint
	{
		OFFSET 0.000000 0.000000 0.000000
		CHANNELS 3 Zrotation Yrotation Xrotation
		JOINT RightUpLeg
		{
			OFFSET -1.800000 -1.400000 0.085000
			CHANNELS 3 Zrotation Yrotation Xrotation
			JOINT RightLeg
			{
				OFFSET -2.215000 -6.000000 0.000000
				CHANNELS 3 Zrotation Yrotation Xrotation
				JOINT RightFoot
				{
					OFFSET -2.500000 -6.900000 0.000000
					CHANNELS 3 Zrotation Yrotation Xrotation
					JOINT RightToeBase
					{
						OFFSET -0.200000 -0.500000 1.950000
						CHANNELS 3 Zrotation Yrotation Xrotation
						End Site
						{
							OFFSET 0.000000 0.000000 0.000000
						}
					}
				}
			}
		}
	}
	JOINT LowerBack
	{
		OFFSET 0.000000 0.000000 0.000000
		CHANNELS 3 Zrotation Yrotation Xrotation
		JOINT Spine
		{
			OFFSET -0.087000 1.940000 -0.288900
			CHANNELS 3 Zrotation Yrotation Xrotation
			JOINT Spine1
			{
				OFFSET 0.000000 1.950000 0.060000
				CHANNELS 3 Zrotation Yrotation Xrotation
				JOINT Neck
				{
					OFFSET 0.000000 0.000000 0.000000
					CHANNELS 3 Zrotation Yrotation Xrotation
					JOINT Neck1
					{
						OFFSET 0.000000 1.600000 0.340000
						CHANNELS 3 Zrotation Yrotation Xrotation
						JOINT Head
						{
							OFFSET 0.000000 1.667000 -0.240000
							CHANNELS 3 Zrotation Yrotation Xrotation
							End Site
							{
								OFFSET 0.000000 0.000000 0.000000
							}
						}
					}
				}
				JOINT LeftShoulder
				{
					OFFSET 0.000000 0.000000 0.000000
					CHANNELS 3 Zrotation Yrotation Xrotation
					JOINT LeftArm
					{
						OFFSET 2.700000 1.550000 -0.730000
						CHANNELS 3 Zrotation Yrotation Xrotation
						JOINT LeftForeArm
						{
							OFFSET 5.450000 0.000000 0.000000
							CHANNELS 3 Zrotation Yrotation Xrotation
							JOINT LeftHand
							{
								OFFSET 3.450000 0.000000 0.000000
								CHANNELS 3 Zrotation Yrotation Xrotation
								JOINT LeftHandIndex1
								{
									OFFSET 0.750000 0.000000 0.000000
									CHANNELS 3 Zrotation Yrotation Xrotation
									End Site
									{
										OFFSET 0.000000 0.000000 0.000000
									}
								}
							}
						}
					}
				}
				JOINT RightShoulder
				{
					OFFSET 0.000000 0.000000 0.000000
					CHANNELS 3 Zrotation Yrotation Xrotation
					JOINT RightArm
					{
						OFFSET -2.700000 1.550000 -0.730000
						CHANNELS 3 Zrotation Yrotation Xrotation
						JOINT RightForeArm
						{
							OFFSET -5.450000 0.000000 0.000000
							CHANNELS 3 Zrotation Yrotation Xrotation
							JOINT RightHand
							{
								OFFSET -3.450000 0.000000 0.000000
								CHANNELS 3 Zrotation Yrotation Xrotation
								JOINT RightHandIndex1
								{
									OFFSET -0.750000 0.000000 0.000000
									CHANNELS 3 Zrotation Yrotation Xrotation
									End Site
									{
										OFFSET 0.000000 0.000000 0.000000
									}
								}
							}
						}
					}
				}
			}
		}
	}
}
MOTION
Frames: 9
Frame Time: 0.016667
-1.290810 16.509860 -12.063150 -11.923428 -52.377019 0.729811 -15.816254 12.432193 5.306999 32.571894 2.651343 -40.942285 7.732621 13.730996 58.319342 0.728329 10.823480 0.407761 0.373680 0.370970 0.370560 18.020116 -9.197126 2.138430 -29.982687 3.624210 -28.038293 3.915653 -9.932564 40.312320 -0.655067 -5.993931 1.927860 0.176600 -0.235380 0.069300 -2.730764 -3.640905 -9.184684 2.308578 -1.262963 27.448489 -0.124111 0.755811 2.710813 1.067617 -6.218302 -17.207209 -27.573317 26.216597 60.362676 -3.655660 14.559020 -8.695540 -32.027688 -23.441642 7.432293 -43.233057 -9.203773 -1.667944 -13.678011 -16.656905 0.456154 -3.327724 2.869137 0.587740 -0.236610 0.429010 0.010200 31.457946 28.200128 10.452065 48.442651 13.326301 -9.990880 37.029611 54.224347 13.112917 2.329208 -1.449405 -0.048530 0.204850 -0.050560 -0.167450 
-1.364630 16.304840 -12.132370 -12.248527 -53.188550 0.870593 -15.792115 12.498970 5.193656 32.292942 2.839347 -41.175886 11.134640 11.921672 59.468283 0.736933 10.753256 0.435676 0.376170 0.366590 0.376990 18.026199 -9.184746 2.253867 -30.501711 3.915981 -28.076299 5.036551 -10.607590 41.039335 -0.697056 -6.219177 1.849261 0.179180 -0.241640 0.053650 -2.814766 -3.610946 -9.208122 3.305451 -1.555952 28.423670 -0.452778 0.825425 3.466405 1.372130 -5.687116 -18.766520 -27.394385 26.698443 63.323890 -2.926720 14.089440 -7.433880 -32.736423 -26.042075 8.460774 -42.259235 -8.937872 -1.458657 -12.366535 -15.554957 0.255902 -3.290467 2.842162 0.606970 -0.249300 0.434210 0.009130 31.649364 30.488862 11.378835 46.589914 14.012473 -10.613054 37.493552 57.494737 14.295125 2.273146 -1.485444 -0.060910 0.218200 -0.051320 -0.173640 
-1.415970 16.166130 -12.180640 -13.194189 -53.652785 1.316884 -15.772500 12.542157 5.040559 32.291717 2.934158 -40.661936 13.017371 10.646096 59.324457 0.723477 10.615712 0.474235 0.380030 0.373530 0.375830 18.039992 -9.092586 2.454997 -30.911360 4.451734 -28.902929 6.298824 -11.734882 43.278025 -0.788603 -6.715583 1.679939 0.184970 -0.243910 0.051580 -2.945001 -3.641694 -9.220806 4.935353 -2.483828 29.703578 -1.077140 0.394581 4.251070 1.768702 -5.255564 -20.007221 -27.479367 27.487400 65.654070 -2.731540 13.761800 -6.222680 -33.560383 -28.233224 9.377584 -41.173392 -8.949605 -1.209394 -10.678556 -14.556248 0.072771 -3.270336 2.837175 0.602960 -0.249270 0.435150 0.006420 31.649418 32.328826 11.699693 43.406846 15.177710 -10.549635 38.989087 59.045438 15.855919 2.234925 -1.522465 -0.056420 0.219640 -0.047250 -0.170180 
-1.454990 16.109460 -12.223460 -14.001375 -53.493337 1.482661 -15.760513 12.626196 4.834274 31.967996 2.940415 -40.184298 15.244799 8.854718 57.650485 0.670982 10.242373 0.590955 0.384430 0.377660 0.384430 18.039686 -8.942585 2.722215 -31.547569 5.132944 -29.429837 8.930866 -13.473445 45.141536 -0.912684 -7.323268 1.481381 0.182440 -0.249820 0.053300 -2.957326 -3.787424 -9.258201 5.860182 -3.082557 31.019742 -0.957857 0.119643 4.934799 2.058394 -4.680734 -21.191008 -27.139872 27.595235 69.030463 -2.993840 13.287040 -4.807380 -35.005256 -30.252786 10.127390 -40.109441 -9.401664 -0.777063 -8.824198 -12.853908 -0.105330 -3.262052 2.819587 0.596810 -0.247960 0.441580 0.005790 32.531204 34.022883 12.008212 40.778702 16.062513 -11.004252 36.843158 58.129792 14.779421 2.171713 -1.547120 -0.045990 0.218410 -0.050130 -0.166310 
-1.498560 16.114690 -12.248920 -14.228666 -53.651452 1.972697 -15.758576 12.659040 4.702763 31.811137 2.978716 -39.664479 15.825382 8.214145 55.977989 0.624450 9.968625 0.679125 0.386090 0.378060 0.373230 18.035443 -8.856903 2.901862 -31.856931 5.463808 -30.004962 10.567821 -14.323021 45.422291 -0.960056 -7.567536 1.405437 0.183230 -0.235530 0.058380 -2.962134 -3.839077 -9.280889 6.232112 -3.182231 30.839178 -0.836064 0.081132 5.494835 2.143423 -4.284445 -21.707519 -26.589019 27.318419 71.398904 -2.209350 12.706510 -3.266450 -35.066123 -31.186475 10.447912 -40.615239 -10.191365 -0.161833 -6.887760 -11.122182 -0.265979 -3.286433 2.813962 0.586260 -0.237690 0.434380 0.016390 32.403833 34.770319 12.035181 39.751165 16.386525 -11.134755 33.799917 55.627678 12.735449 2.147161 -1.537691 -0.041630 0.214060 -0.051870 -0.157240 
-1.531040 16.171130 -12.262000 -13.326220 -53.643994 2.028956 -15.769920 12.579374 4.684680 31.897268 2.795564 -39.418397 14.235600 8.922885 54.987290 0.581041 9.860383 0.703033 0.377890 0.371640 0.371930 18.037113 -8.818702 2.967315 -32.301323 5.145323 -30.197536 11.587342 -14.722569 44.606058 -0.950672 -7.599006 1.391176 0.178790 -0.225290 0.065400 -2.958152 -3.775825 -9.309262 5.831837 -2.900219 29.310920 -0.936242 0.097625 6.457994 2.163489 -3.856476 -21.432074 -25.112592 26.369580 73.769866 -1.989740 12.718810 -2.246500 -33.331857 -31.203622 10.394690 -42.153360 -11.718536 0.239790 -4.581767 -11.044760 -0.413452 -3.336249 2.813757 0.568490 -0.217780 0.423970 0.009480 30.488260 34.657113 11.643474 40.888313 16.964319 -10.727225 30.462080 52.805959 10.456624 2.179731 -1.472845 -0.037260 0.204020 -0.046060 -0.157330 
-1.555740 16.294010 -12.257060 -12.595855 -53.608788 2.271455 -15.743955 12.670687 4.680448 31.994838 2.709938 -38.510034 12.160677 9.651184 52.835597 0.521637 9.617318 0.778202 0.345800 0.339300 0.349100 18.024936 -9.001840 2.831302 -31.235305 4.817215 -29.403707 10.694504 -13.562889 42.442968 -0.833132 -7.108111 1.553860 0.155680 -0.191080 0.074030 -2.908438 -3.700652 -9.231653 5.097855 -2.663389 27.602888 -1.054473 0.042286 6.308063 2.199664 -3.533016 -20.857233 -23.735620 25.603911 75.579604 -1.331300 13.066760 -0.619390 -33.075820 -30.365659 10.185333 -43.957596 -11.526597 0.363772 -3.911512 -10.196158 -0.485935 -3.388772 2.811951 0.546330 -0.189110 0.405420 0.006850 30.088611 33.723379 11.044051 42.249605 16.382457 -9.706134 27.796098 46.551733 8.031109 2.244800 -1.383391 -0.038830 0.198160 -0.030520 -0.148550 
-1.559960 16.451310 -12.232330 -11.779040 -53.784401 2.659313 -15.707898 12.765300 4.659601 31.987798 2.561113 -37.257415 9.418340 10.568509 50.212427 0.471637 9.324928 0.881250 0.329020 0.327980 0.301680 18.017013 -9.227688 2.683502 -30.084966 4.300700 -28.722526 9.393781 -12.027870 39.474925 -0.681145 -6.434647 1.797958 0.148530 -0.154450 0.053490 -2.887246 -3.585451 -9.106975 4.728021 -2.230611 25.415287 -0.778583 0.231068 5.875983 1.982079 -4.005665 -20.250712 -24.807236 25.446228 74.491546 0.229810 12.101240 0.823330 -31.797712 -28.947800 9.850312 -46.618454 -10.965806 -0.319062 -3.954611 -12.702438 -0.563891 -3.372610 2.848665 0.517010 -0.181280 0.372510 0.031420 29.351726 32.630516 10.954023 43.637238 14.819582 -9.070267 26.133903 42.061962 6.461769 2.295860 -1.345110 -0.042930 0.202440 -0.035020 -0.123430 
-1.562910 16.629430 -12.202820 -10.812848 -54.266062 3.040755 -15.660392 12.963459 4.612225 31.857012 2.381111 -35.463829 6.430515 11.302774 46.825742 0.410948 8.970182 1.011102 0.291880 0.298960 0.235680 17.998242 -9.503573 2.461509 -28.682625 3.624804 -27.359501 7.645043 -9.923904 34.609117 -0.486199 -5.440033 2.158972 0.131960 -0.091030 0.042140 -2.850953 -3.580535 -8.904712 4.160993 -2.117358 23.022495 -0.612773 0.070268 5.742640 1.659482 -4.465370 -19.989452 -26.786956 26.606401 72.253997 1.683310 12.013510 2.413410 -30.672400 -28.179564 9.692747 -48.946325 -11.120760 0.255830 -4.200370 -11.646510 -0.517697 -3.404209 2.863066 0.480850 -0.156240 0.331800 0.055750 29.003683 31.793993 11.036909 44.733871 13.224319 -8.893445 24.564820 39.341413 5.362982 2.328422 -1.317417 -0.052820 0.214720 -0.022250 -0.091090 
